<?xml version="1.0" standalone="no"?>
<!DOCTYPE svg PUBLIC "-//W3C//DTD SVG 20010904//EN"
 "http://www.w3.org/TR/2001/REC-SVG-20010904/DTD/svg10.dtd">
<svg version="1.0" xmlns="http://www.w3.org/2000/svg"
 width="512.000000pt" height="512.000000pt" viewBox="0 0 512.000000 512.000000"
 preserveAspectRatio="xMidYMid meet">
<metadata>
Created by potrace 1.16, written by Peter Selinger 2001-2019
</metadata>
<g transform="translate(0.000000,512.000000) scale(0.100000,-0.100000)"
fill="#000000" stroke="none">
<path d="M995 4904 c-213 -25 -360 -83 -504 -197 -147 -117 -243 -276 -298
-497 -15 -59 -17 -220 -20 -1620 -3 -1026 0 -1587 6 -1650 15 -136 36 -211 91
-325 121 -251 342 -413 635 -467 55 -10 405 -13 1655 -13 1250 0 1600 3 1655
13 293 54 514 216 635 467 55 114 76 189 91 325 6 63 9 624 6 1650 -3 1400 -5
1561 -20 1620 -92 368 -309 585 -677 677 -59 15 -217 17 -1645 19 -869 1
-1593 0 -1610 -2z m2892 -775 l413 -164 -3 -1405 -2 -1405 -425 -172 c-234
-94 -434 -172 -445 -172 -14 -1 -238 217 -711 690 l-691 691 -434 -337 c-238
-186 -440 -339 -449 -341 -8 -2 -91 36 -185 84 l-170 87 -3 875 -2 875 175 88
c96 48 180 87 185 87 5 0 206 -153 447 -340 l437 -341 695 695 695 695 30 -13
c17 -7 217 -86 443 -177z"/>
<path d="M2955 2916 c-241 -189 -441 -348 -443 -354 -1 -5 39 -43 91 -84 52
-40 236 -183 408 -317 173 -135 333 -260 357 -279 l42 -34 0 706 c0 388 -3
706 -7 705 -5 0 -206 -155 -448 -343z"/>
<path d="M1140 2560 l0 -515 257 258 258 257 -258 257 -257 258 0 -515z"/>
</g>
</svg>
