<?xml version="1.0" standalone="no"?>
<!DOCTYPE svg PUBLIC "-//W3C//DTD SVG 20010904//EN"
 "http://www.w3.org/TR/2001/REC-SVG-20010904/DTD/svg10.dtd">
<svg version="1.0" xmlns="http://www.w3.org/2000/svg"
 width="64.000000pt" height="64.000000pt" viewBox="0 0 64.000000 64.000000"
 preserveAspectRatio="xMidYMid meet">
<metadata>
Created by potrace 1.16, written by Peter Selinger 2001-2019
</metadata>
<g transform="translate(0.000000,64.000000) scale(0.100000,-0.100000)"
fill="#000000" stroke="none">
<path d="M0 575 c0 -69 8 -80 30 -40 7 14 18 25 24 25 99 0 402 54 425 76 2 2
-104 4 -237 4 l-242 0 0 -65z"/>
<path d="M510 634 c0 -10 28 -34 39 -34 6 0 11 -8 11 -17 2 -83 24 -236 46
-318 14 -55 28 -102 30 -104 2 -2 4 104 4 237 l0 242 -65 0 c-36 0 -65 -3 -65
-6z"/>
<path d="M1 248 l-1 -248 72 0 72 0 -22 20 c-12 11 -25 20 -31 20 -5 0 -12 39
-16 88 -9 115 -20 180 -49 282 l-25 85 0 -247z"/>
<path d="M278 423 c-43 -3 -58 -8 -58 -19 0 -11 4 -12 19 -4 11 5 31 10 44 10
24 0 24 -2 31 -105 4 -58 5 -109 1 -115 -4 -6 5 -10 20 -10 21 0 26 4 21 17
-8 21 -26 206 -21 211 2 3 22 5 45 6 22 0 40 4 40 8 0 8 -26 8 -142 1z"/>
<path d="M617 120 c-9 -11 -17 -24 -17 -29 0 -5 -44 -12 -97 -15 -115 -8 -159
-15 -273 -49 l-85 -25 248 -1 247 -1 0 70 c0 39 -1 70 -3 70 -1 0 -10 -9 -20
-20z"/>
</g>
</svg>
